<svg width="25" height="25" viewBox="0 0 25 25" fill="none" xmlns="http://www.w3.org/2000/svg">
<g style="mix-blend-mode:exclusion">
<path fill-rule="evenodd" clip-rule="evenodd" d="M12.4392 0C5.56653 0 0 5.58589 0 12.4824C0 18.0059 3.56071 22.6712 8.50528 24.3252C9.12724 24.4344 9.36047 24.0599 9.36047 23.7322C9.36047 23.4358 9.34492 22.4528 9.34492 21.4074C6.21958 21.9847 5.41104 20.6428 5.16225 19.9407C5.02231 19.5818 4.4159 18.474 3.88724 18.1776C3.45187 17.9435 2.82991 17.3662 3.87169 17.3506C4.85127 17.335 5.55098 18.2556 5.78421 18.63C6.90374 20.518 8.69187 19.9875 9.40712 19.6598C9.51596 18.8485 9.84249 18.3024 10.2001 17.9903C7.4324 17.6783 4.5403 16.6016 4.5403 11.8271C4.5403 10.4696 5.02231 9.34623 5.81531 8.47246C5.69092 8.1604 5.25555 6.88095 5.9397 5.16461C5.9397 5.16461 6.98148 4.83695 9.36047 6.44406C10.3556 6.16321 11.4129 6.02278 12.4703 6.02278C13.5276 6.02278 14.5849 6.16321 15.5801 6.44406C17.959 4.82134 19.0008 5.16461 19.0008 5.16461C19.685 6.88095 19.2496 8.1604 19.1252 8.47246C19.9182 9.34623 20.4002 10.454 20.4002 11.8271C20.4002 16.6173 17.4926 17.6783 14.7249 17.9903C15.1758 18.3804 15.5645 19.1293 15.5645 20.2996C15.5645 21.9691 15.549 23.311 15.549 23.7322C15.549 24.0599 15.7822 24.45 16.4041 24.3252C18.8735 23.4885 21.0193 21.896 22.5394 19.7715C24.0596 17.6471 24.8776 15.0978 24.8783 12.4824C24.8783 5.58589 19.3118 0 12.4392 0Z" fill="white" fill-opacity="0.7"/>
</g>
</svg>
