<svg width="68" height="64" viewBox="0 0 68 64" fill="none" xmlns="http://www.w3.org/2000/svg">
<g style="mix-blend-mode:exclusion" filter="url(#filter0_d_1253_78)">
<path fill-rule="evenodd" clip-rule="evenodd" d="M33.7044 0.591309C17.3521 0.591309 4.10754 13.1995 4.10754 28.766C4.10754 41.2333 12.5796 51.7636 24.3444 55.4967C25.8243 55.7432 26.3792 54.898 26.3792 54.1584C26.3792 53.4893 26.3422 51.2705 26.3422 48.9109C18.906 50.214 16.9822 47.1852 16.3902 45.6004C16.0573 44.7903 14.6144 42.2898 13.3566 41.6207C12.3207 41.0924 10.8408 39.7893 13.3196 39.7541C15.6503 39.7189 17.3151 41.7968 17.8701 42.642C20.5338 46.9034 24.7884 45.706 26.4902 44.9664C26.7492 43.1351 27.5261 41.9024 28.377 41.1981C21.7917 40.4937 14.9104 38.0636 14.9104 27.2868C14.9104 24.2228 16.0573 21.6871 17.9441 19.7149C17.6481 19.0105 16.6122 16.1226 18.2401 12.2486C18.2401 12.2486 20.7188 11.509 26.3792 15.1365C28.7469 14.5026 31.2627 14.1856 33.7784 14.1856C36.2941 14.1856 38.8099 14.5026 41.1776 15.1365C46.838 11.4738 49.3168 12.2486 49.3168 12.2486C50.9446 16.1226 49.9087 19.0105 49.6127 19.7149C51.4995 21.6871 52.6464 24.1876 52.6464 27.2868C52.6464 38.0988 45.7281 40.4937 39.1428 41.1981C40.2157 42.0785 41.1406 43.769 41.1406 46.4104C41.1406 50.1787 41.1036 53.2075 41.1036 54.1584C41.1036 54.898 41.6586 55.7785 43.1384 55.4967C49.0138 53.6084 54.1193 50.0136 57.7363 45.2185C61.3532 40.4234 63.2995 34.6693 63.3013 28.766C63.3013 13.1995 50.0567 0.591309 33.7044 0.591309Z" fill="#D9D9D9" fill-opacity="0.76" shape-rendering="crispEdges"/>
</g>
<defs>
<filter id="filter0_d_1253_78" x="0.107544" y="0.591309" width="67.1937" height="62.9592" filterUnits="userSpaceOnUse" color-interpolation-filters="sRGB">
<feFlood flood-opacity="0" result="BackgroundImageFix"/>
<feColorMatrix in="SourceAlpha" type="matrix" values="0 0 0 0 0 0 0 0 0 0 0 0 0 0 0 0 0 0 127 0" result="hardAlpha"/>
<feOffset dy="4"/>
<feGaussianBlur stdDeviation="2"/>
<feComposite in2="hardAlpha" operator="out"/>
<feColorMatrix type="matrix" values="0 0 0 0 0 0 0 0 0 0 0 0 0 0 0 0 0 0 0.25 0"/>
<feBlend mode="normal" in2="BackgroundImageFix" result="effect1_dropShadow_1253_78"/>
<feBlend mode="normal" in="SourceGraphic" in2="effect1_dropShadow_1253_78" result="shape"/>
</filter>
</defs>
</svg>
